<?xml version="1.0" standalone="no"?>
<!DOCTYPE svg PUBLIC "-//W3C//DTD SVG 20010904//EN"
 "http://www.w3.org/TR/2001/REC-SVG-20010904/DTD/svg10.dtd">
<svg version="1.0" xmlns="http://www.w3.org/2000/svg"
 width="200.000000pt" height="200.000000pt" viewBox="0 0 200.000000 200.000000"
 preserveAspectRatio="xMidYMid meet">
<metadata>
Created by potrace 1.16, written by Peter Selinger 2001-2019
</metadata>
<g transform="translate(0.000000,200.000000) scale(0.100000,-0.100000)"
fill="#000000" stroke="none">
<path d="M818 1985 c-42 -7 -85 -18 -96 -24 -12 -6 -27 -11 -36 -11 -23 0
-176 -75 -223 -109 -24 -17 -45 -31 -48 -31 -6 0 -55 -43 -110 -95 -35 -33
-132 -156 -154 -195 -44 -76 -92 -192 -110 -260 -35 -131 -35 -378 0 -510 31
-121 111 -280 188 -373 48 -58 183 -187 195 -187 4 0 28 -15 54 -32 70 -49
171 -93 282 -125 90 -25 421 -25 490 0 25 9 52 17 62 17 9 0 33 8 55 19 21 10
63 30 93 45 115 55 225 142 320 253 26 30 91 126 101 147 5 12 13 28 18 36 69
121 101 267 101 455 0 186 -33 336 -101 455 -5 8 -14 26 -20 40 -5 13 -14 27
-18 30 -4 3 -17 21 -29 41 -12 19 -32 47 -44 61 -79 88 -100 108 -160 156 -36
28 -69 52 -74 52 -4 0 -15 6 -23 14 -17 14 -76 46 -131 70 -154 68 -390 93
-582 61z m266 -391 c85 -65 185 -100 321 -114 66 -7 128 -16 139 -22 17 -9 18
-23 13 -241 -2 -128 -10 -270 -17 -317 -20 -139 -65 -254 -122 -315 -15 -16
-28 -33 -28 -37 0 -5 -4 -8 -9 -8 -6 0 -32 -15 -58 -32 -26 -18 -68 -43 -93
-55 -25 -12 -63 -34 -85 -48 -22 -13 -47 -28 -55 -32 -8 -4 -24 -15 -34 -25
-25 -23 -57 -23 -82 0 -10 10 -26 21 -34 25 -8 4 -27 15 -42 25 -58 38 -121
72 -134 72 -8 0 -14 4 -14 9 0 5 -16 16 -36 26 -35 17 -134 104 -134 119 0 4
-8 20 -18 34 -29 42 -59 165 -82 337 -5 39 -10 156 -10 262 0 173 2 193 18
201 9 5 71 15 137 22 68 7 142 21 170 32 55 22 127 58 135 68 18 21 66 50 85
50 12 0 43 -16 69 -36z"/>
<path d="M1000 1470 c0 -5 -9 -10 -20 -10 -11 0 -20 -4 -20 -8 0 -8 -22 -21
-85 -48 -67 -28 -174 -54 -226 -54 l-55 0 4 -72 c14 -330 32 -461 73 -553 15
-32 97 -114 115 -115 6 0 17 -7 24 -15 7 -8 20 -15 30 -15 9 0 25 -9 35 -20
10 -11 24 -20 32 -20 8 0 19 -5 26 -10 7 -6 28 -21 47 -33 l35 -23 50 33 c27
18 55 33 62 33 7 0 13 4 13 9 0 5 17 16 38 26 90 40 152 91 183 151 31 60 57
223 64 394 3 85 8 172 11 193 l6 37 -54 0 c-72 0 -296 69 -318 98 -8 10 -48
32 -60 32 -5 0 -10 -4 -10 -10z"/>
</g>
</svg>
